<svg id="Layer_1" enable-background="new 0 0 512 512" height="512" viewBox="0 0 512 512" width="512" xmlns="http://www.w3.org/2000/svg"><g><path d="m497 442.612h-164.413l158.859-158.868c13.246-13.246 20.541-30.856 20.541-49.588 0-18.73-7.295-36.341-20.541-49.587l-124.674-124.674c-27.343-27.343-71.832-27.343-99.175 0l-247.055 247.057c-13.247 13.246-20.542 30.856-20.542 49.588 0 18.73 7.295 36.341 20.542 49.587l62.092 62.092c2.813 2.813 6.628 4.394 10.606 4.394h403.76c8.284 0 15-6.716 15-15s-6.716-15.001-15-15.001zm-261.069-308.625 39.477 39.477-120.983 120.985-39.477-39.477zm120.733 120.733-120.984 120.984-60.043-60.043 120.984-120.984zm21.213 21.213 39.478 39.478-40.469 40.471-80.514 80.513-39.479-39.479zm-89.066-194.825c15.646-15.645 41.103-15.645 56.749 0l124.674 124.674c15.646 15.646 15.646 41.104 0 56.749l-31.666 31.667-181.424-181.424zm-247.057 303.806c-7.58-7.58-11.754-17.658-11.754-28.374 0-10.718 4.174-20.795 11.753-28.374l51.981-51.981 50.082 50.082s.001.001.001.001l81.255 81.256c.003.003.006.005.009.008l35.08 35.08h-160.708z"/></g></svg>