<?xml version="1.0" standalone="no"?><!DOCTYPE svg PUBLIC "-//W3C//DTD SVG 1.1//EN" "http://www.w3.org/Graphics/SVG/1.1/DTD/svg11.dtd"><svg class="icon" height="512" viewBox="0 0 1024 1024" version="1.1" xmlns="http://www.w3.org/2000/svg"><path d="M284.081231 969.412923c40.723692 20.598154 84.164923 35.603692 128.905846 44.662154l20.676923-102.833231c-35.603692-7.128615-69.986462-18.983385-102.281846-35.367385L284.081231 969.412923zM112.836923 573.164308 9.058462 588.327385c3.741538 25.521231 9.452308 51.003077 17.092923 75.657846l100.155077-30.877538C120.359385 613.612308 115.751385 593.447385 112.836923 573.164308zM83.692308 788.283077c24.536615 38.4 54.153846 73.373538 87.985231 104.014769l70.380308-77.745231c-26.978462-24.339692-50.491077-52.184615-69.986462-82.747077L83.692308 788.283077zM744.290462 847.320615l59.707077 86.173538c37.533538-25.954462 71.404308-56.832 100.785231-91.766154l-80.384-67.426462C801.083077 802.067692 774.144 826.604308 744.290462 847.320615zM513.851077 3.702154c-117.641846 0-228.982154 39.739077-319.330462 112.443077L79.478154 1.102769 0 398.454154l397.390769-79.438769L269.390769 191.015385c70.065231-53.208615 154.939077-82.432 244.460308-82.432 223.468308 0 405.267692 181.799385 405.267692 405.267692 0 37.691077-5.198769 75.027692-15.399385 111.025231-5.671385 19.849846-12.839385 39.266462-21.346462 57.816615l95.310769 43.795692c10.712615-23.394462 19.771077-47.931077 26.939077-72.900923l0-0.039385C1017.462154 608.256 1024 561.270154 1024 513.851077 1024 232.526769 795.136 3.702154 513.851077 3.702154zM541.774769 918.212923l7.168 104.644923c45.686154-3.111385 90.624-12.327385 133.632-27.411692l-34.658462-98.973538C613.769846 908.445538 578.087385 915.771077 541.774769 918.212923zM568.910769 514.678154c0-29.696-24.024615-53.720615-53.720615-53.720615s-53.76 24.024615-53.76 53.720615 24.064 53.76 53.76 53.76S568.910769 544.374154 568.910769 514.678154zM515.190154 537.718154c-12.721231 0-23.04-10.318769-23.04-23.04s10.318769-23.04 23.04-23.04 23.04 10.318769 23.04 23.04S527.911385 537.718154 515.190154 537.718154z" /></svg>